<?xml version="1.0" encoding="utf-8"?>
<!-- Generator: Adobe Illustrator 25.2.1, SVG Export Plug-In . SVG Version: 6.00 Build 0)  -->
<svg version="1.1" id="Layer_1" xmlns="http://www.w3.org/2000/svg" xmlns:xlink="http://www.w3.org/1999/xlink" x="0px" y="0px"
	 viewBox="0 0 1200 1176.09" style="enable-background:new 0 0 1200 1176.09;" xml:space="preserve">
<style type="text/css">
	.st0{fill:#002D3C;}
</style>
<g>
	<path class="st0" d="M1013.29,784.06L1013.29,784.06L1200,970.77v-15.64l-22.14-22.14l22.14-22.14v-15.64l-29.96,29.96
		l-16.06-16.06l46.02-46.02v-15.64l-53.84,53.84l-16.06-16.06l69.9-69.9V799.7l-77.72,77.72l-15.64-15.63l77.72-77.72l0,0h0
		l-77.72-77.72l15.64-15.63l77.72,77.72v-15.64l-69.9-69.9l16.06-16.06l53.84,53.84v-15.64l-46.02-46.02l16.06-16.06L1200,672.9
		v-15.64l-22.14-22.14l22.14-22.14v-15.64L1013.29,784.06L1013.29,784.06z M1098.83,714.16l69.9,69.9h0l0,0l-69.9,69.9l-16.06-16.06
		l53.84-53.84l0,0h0l-53.84-53.84L1098.83,714.16z M1074.95,738.04l46.02,46.02h0l0,0l-46.02,46.02l-16.06-16.06l29.96-29.96v0
		l-29.96-29.96L1074.95,738.04z M1051.07,761.92l22.14,22.14h0l0,0l-22.14,22.14l-22.14-22.14l0,0h0L1051.07,761.92z"/>
	<path class="st0" d="M800,597.35L613.29,784.06h0l0,0L800,970.77l186.71-186.71l0,0h0L800,597.35z M800,612.99l22.14,22.14
		L800,657.27l-22.14-22.14L800,612.99z M770.04,642.95L800,672.9l29.96-29.96l16.06,16.06L800,705.03l-46.02-46.02L770.04,642.95z
		 M746.16,666.83L800,720.66l53.84-53.84l16.06,16.06l-69.9,69.9l-69.9-69.9L746.16,666.83z M628.93,784.06l22.14-22.14l22.14,22.14
		h0l0,0l-22.14,22.14L628.93,784.06L628.93,784.06L628.93,784.06z M688.84,784.06L688.84,784.06L688.84,784.06l-29.96-29.96
		l16.06-16.06l46.02,46.02h0l0,0l-46.02,46.02l-16.06-16.06L688.84,784.06z M736.6,784.06L736.6,784.06L736.6,784.06l-53.84-53.84
		l16.06-16.06l69.9,69.9h0l0,0l-69.9,69.9l-16.06-16.06L736.6,784.06z M800,955.13l-22.14-22.14L800,910.85l22.14,22.14L800,955.13z
		 M829.96,925.17L800,895.22l-29.96,29.96l-16.06-16.06L800,863.09l46.02,46.02L829.96,925.17z M853.84,901.29L800,847.46
		l-53.84,53.84l-16.06-16.06l69.9-69.9l69.9,69.9L853.84,901.29z M877.72,877.41L800,799.7l-77.72,77.72l-15.64-15.63l77.72-77.72
		l0,0h0l-77.72-77.72l15.64-15.63L800,768.42l77.72-77.72l15.64,15.63l-77.72,77.72h0l0,0l77.72,77.72L877.72,877.41z
		 M901.17,853.96l-69.9-69.9l0,0h0l69.9-69.9l16.06,16.06l-53.84,53.84h0l0,0l53.84,53.84L901.17,853.96z M925.05,830.08
		l-46.02-46.02l0,0h0l46.02-46.02l16.06,16.06l-29.96,29.96v0l29.96,29.96L925.05,830.08z M971.07,784.06l-22.14,22.14l-22.14-22.14
		l0,0h0l22.14-22.14L971.07,784.06L971.07,784.06L971.07,784.06z"/>
	<polygon class="st0" points="1184.36,392.03 1200,407.67 1200,392.03 1200,376.39 1184.36,392.03 	"/>
	<path class="st0" d="M1186.71,588.04L1000,401.34L813.29,588.04L1000,774.75L1186.71,588.04z M1148.93,610.18l-22.14-22.14
		l22.14-22.14l22.14,22.14L1148.93,610.18z M1111.16,588.04l29.96,29.96l-16.06,16.06l-46.02-46.02l46.02-46.02l16.06,16.06
		L1111.16,588.04z M1063.4,588.04l53.84,53.84l-16.06,16.06l-69.9-69.9l69.9-69.9l16.06,16.06L1063.4,588.04z M1000,416.98
		l22.14,22.14L1000,461.25l-22.14-22.14L1000,416.98z M970.04,446.93l29.96,29.96l29.96-29.96l16.06,16.06L1000,509.01l-46.02-46.02
		L970.04,446.93z M946.16,470.81l53.84,53.84l53.84-53.84l16.06,16.06l-69.9,69.9l-69.9-69.9L946.16,470.81z M851.07,565.91
		l22.14,22.14l-22.14,22.14l-22.14-22.14L851.07,565.91z M888.84,588.04l-29.96-29.96l16.06-16.06l46.02,46.02l-46.02,46.02
		L858.89,618L888.84,588.04z M936.6,588.04l-53.84-53.84l16.06-16.06l69.9,69.9l-69.9,69.9l-16.06-16.06L936.6,588.04z
		 M984.36,588.04l-77.71-77.72l15.63-15.63l77.72,77.72l77.72-77.72l15.64,15.64l-77.72,77.72l77.72,77.72l-15.64,15.64L1000,603.68
		l-77.72,77.72l-15.63-15.64L984.36,588.04z M1000,619.32l69.9,69.9l-16.06,16.06L1000,651.44l-53.84,53.84l-16.06-16.06
		L1000,619.32z M1000,667.08l46.02,46.02l-16.06,16.06L1000,699.2l-29.96,29.96l-16.06-16.06L1000,667.08z M1000,714.84l22.14,22.14
		L1000,759.11l-22.14-22.14L1000,714.84z"/>
	
		<rect x="988.94" y="576.99" transform="matrix(0.7071 -0.7071 0.7071 0.7071 -122.9172 879.3417)" class="st0" width="22.11" height="22.11"/>
	<path class="st0" d="M400,597.35L213.29,784.06h0l0,0L400,970.77l186.71-186.71l0,0h0L400,597.35z M400,612.99l22.14,22.14
		L400,657.27l-22.14-22.14L400,612.99z M370.04,642.95L400,672.9l29.96-29.96l16.06,16.06L400,705.03l-46.02-46.02L370.04,642.95z
		 M346.16,666.83L400,720.66l53.84-53.84l16.06,16.06l-69.9,69.9l-69.9-69.9L346.16,666.83z M228.93,784.06l22.14-22.14l22.14,22.14
		h0l0,0l-22.14,22.14L228.93,784.06L228.93,784.06L228.93,784.06z M288.84,784.06L288.84,784.06L288.84,784.06l-29.96-29.96
		l16.06-16.06l46.02,46.02h0l0,0l-46.02,46.02l-16.06-16.06L288.84,784.06z M336.6,784.06L336.6,784.06L336.6,784.06l-53.84-53.84
		l16.06-16.06l69.9,69.9h0l0,0l-69.9,69.9l-16.06-16.06L336.6,784.06z M400,955.13l-22.14-22.14L400,910.85l22.14,22.14L400,955.13z
		 M429.96,925.17L400,895.22l-29.96,29.96l-16.06-16.06L400,863.09l46.02,46.02L429.96,925.17z M453.84,901.29L400,847.46
		l-53.84,53.84l-16.06-16.06l69.9-69.9l69.9,69.9L453.84,901.29z M477.72,877.41L400,799.7l-77.72,77.72l-15.64-15.63l77.72-77.72
		l0,0h0l-77.72-77.72l15.64-15.63L400,768.42l77.72-77.72l15.64,15.63l-77.72,77.72h0l0,0l77.72,77.72L477.72,877.41z
		 M501.17,853.96l-69.9-69.9l0,0h0l69.9-69.9l16.06,16.06l-53.84,53.84h0l0,0l53.84,53.84L501.17,853.96z M525.05,830.08
		l-46.02-46.02l0,0h0l46.02-46.02l16.06,16.06l-29.96,29.96h0l0,0l29.96,29.96L525.05,830.08z M571.07,784.06l-22.14,22.14
		l-22.14-22.14l0,0h0l22.14-22.14L571.07,784.06L571.07,784.06L571.07,784.06z"/>
	<path class="st0" d="M800,578.74l186.71-186.71l0,0h0L800,205.32L613.29,392.03h0l0,0L800,578.74z M800,563.1l-22.14-22.14
		L800,518.82l22.14,22.14L800,563.1z M829.96,533.14L800,503.19l-29.96,29.96l-16.06-16.06L800,471.06l46.02,46.02L829.96,533.14z
		 M853.84,509.26L800,455.43l-53.84,53.84L730.1,493.2l69.9-69.9l69.9,69.9L853.84,509.26z M971.07,392.03l-22.14,22.14
		l-22.14-22.14l0,0h0l22.14-22.14L971.07,392.03L971.07,392.03L971.07,392.03z M911.16,392.03L911.16,392.03l29.96,29.96
		l-16.06,16.06l-46.02-46.02l0,0h0l46.02-46.02l16.06,16.06L911.16,392.03z M863.4,392.03L863.4,392.03L863.4,392.03l53.84,53.84
		l-16.06,16.06l-69.9-69.9l0,0h0l69.9-69.9l16.06,16.06L863.4,392.03z M800,220.96l22.14,22.14L800,265.24l-22.14-22.14L800,220.96z
		 M770.04,250.92L800,280.87l29.96-29.96l16.06,16.06L800,313l-46.02-46.02L770.04,250.92z M746.16,274.8L800,328.63l53.84-53.84
		l16.06,16.06l-69.9,69.9l-69.9-69.9L746.16,274.8z M722.28,298.68L800,376.39l77.72-77.72l15.64,15.63l-77.72,77.72h0l0,0
		l77.72,77.72l-15.64,15.64L800,407.67l-77.72,77.72l-15.64-15.64l77.72-77.72l0,0h0l-77.72-77.72L722.28,298.68z M698.83,322.13
		l69.9,69.9h0l0,0l-69.9,69.9l-16.06-16.06l53.84-53.84l0,0h0l-53.84-53.84L698.83,322.13z M674.95,346.01l46.02,46.02h0l0,0
		l-46.02,46.02l-16.06-16.06l29.96-29.96l0,0h0l-29.96-29.96L674.95,346.01z M651.07,369.89l22.14,22.14h0l0,0l-22.14,22.14
		l-22.14-22.14l0,0h0L651.07,369.89z"/>
	<polygon class="st0" points="784.36,392.03 800,407.67 815.64,392.03 815.64,392.03 800,376.39 784.36,392.03 	"/>
	<path class="st0" d="M786.71,588.04L600,401.34L413.29,588.04L600,774.75L786.71,588.04z M748.93,610.18l-22.14-22.14l22.14-22.14
		l22.14,22.14L748.93,610.18z M711.16,588.04L741.11,618l-16.06,16.06l-46.02-46.02l46.02-46.02l16.06,16.06L711.16,588.04z
		 M663.4,588.04l53.84,53.84l-16.06,16.06l-69.9-69.9l69.9-69.9l16.06,16.06L663.4,588.04z M600,416.98l22.14,22.14L600,461.25
		l-22.14-22.14L600,416.98z M570.04,446.93L600,476.89l29.96-29.96l16.06,16.06L600,509.01l-46.02-46.02L570.04,446.93z
		 M546.16,470.81L600,524.65l53.84-53.84l16.06,16.06l-69.9,69.9l-69.9-69.9L546.16,470.81z M451.07,565.91l22.14,22.14
		l-22.14,22.14l-22.14-22.14L451.07,565.91z M488.84,588.04l-29.96-29.96l16.06-16.06l46.02,46.02l-46.02,46.02L458.89,618
		L488.84,588.04z M536.6,588.04l-53.84-53.84l16.06-16.06l69.9,69.9l-69.9,69.9l-16.06-16.06L536.6,588.04z M584.36,588.04
		l-77.72-77.72l15.63-15.63L600,572.41l77.72-77.72l15.64,15.64l-77.72,77.72l77.72,77.72l-15.64,15.64L600,603.68l-77.72,77.72
		l-15.64-15.64L584.36,588.04z M600,619.32l69.9,69.9l-16.06,16.06L600,651.44l-53.84,53.84l-16.06-16.06L600,619.32z M600,667.08
		l46.02,46.02l-16.06,16.06L600,699.2l-29.96,29.96l-16.06-16.06L600,667.08z M600,714.84l22.14,22.14L600,759.11l-22.14-22.14
		L600,714.84z"/>
	
		<rect x="588.94" y="576.99" transform="matrix(0.7071 -0.7071 0.7071 0.7071 -240.0746 596.4984)" class="st0" width="22.11" height="22.11"/>
	<path class="st0" d="M400,578.74l186.71-186.71l0,0h0L400,205.32L213.29,392.03h0l0,0L400,578.74z M400,563.1l-22.14-22.14
		L400,518.82l22.14,22.14L400,563.1z M429.96,533.14L400,503.19l-29.96,29.96l-16.06-16.06L400,471.06l46.02,46.02L429.96,533.14z
		 M453.84,509.26L400,455.43l-53.84,53.84L330.1,493.2l69.9-69.9l69.9,69.9L453.84,509.26z M571.07,392.03l-22.14,22.14
		l-22.14-22.14l0,0h0l22.14-22.14L571.07,392.03L571.07,392.03L571.07,392.03z M511.16,392.03L511.16,392.03L511.16,392.03
		l29.96,29.96l-16.06,16.06l-46.02-46.02l0,0h0l46.02-46.02l16.06,16.06L511.16,392.03z M463.4,392.03L463.4,392.03L463.4,392.03
		l53.84,53.84l-16.06,16.06l-69.9-69.9l0,0h0l69.9-69.9l16.06,16.06L463.4,392.03z M400,220.96l22.14,22.14L400,265.24l-22.14-22.14
		L400,220.96z M370.04,250.92L400,280.87l29.96-29.96l16.06,16.06L400,313l-46.02-46.02L370.04,250.92z M346.16,274.8L400,328.63
		l53.84-53.84l16.06,16.06l-69.9,69.9l-69.9-69.9L346.16,274.8z M322.28,298.68L400,376.39l77.72-77.72l15.64,15.63l-77.72,77.72h0
		l0,0l77.72,77.72l-15.64,15.64L400,407.67l-77.72,77.72l-15.64-15.64l77.72-77.72l0,0h0l-77.72-77.72L322.28,298.68z
		 M298.83,322.13l69.9,69.9h0l0,0l-69.9,69.9l-16.06-16.06l53.84-53.84l0,0h0l-53.84-53.84L298.83,322.13z M274.95,346.01
		l46.02,46.02h0l0,0l-46.02,46.02l-16.06-16.06l29.96-29.96l0,0h0l-29.96-29.96L274.95,346.01z M251.07,369.89l22.14,22.14h0l0,0
		l-22.14,22.14l-22.14-22.14l0,0h0L251.07,369.89z"/>
	<polygon class="st0" points="384.36,392.03 400,407.67 415.64,392.03 415.64,392.03 400,376.39 384.36,392.03 	"/>
	<path class="st0" d="M13.29,588.04L200,774.75l186.71-186.71L200,401.34L13.29,588.04z M51.07,565.91l22.14,22.14l-22.14,22.14
		l-22.14-22.14L51.07,565.91z M88.84,588.04l-29.96-29.96l16.06-16.06l46.02,46.02l-46.02,46.02L58.89,618L88.84,588.04z
		 M136.6,588.04l-53.84-53.84l16.06-16.06l69.9,69.9l-69.9,69.9l-16.06-16.06L136.6,588.04z M200,759.11l-22.14-22.14L200,714.84
		l22.14,22.14L200,759.11z M229.96,729.16L200,699.2l-29.96,29.96l-16.06-16.06L200,667.08l46.02,46.02L229.96,729.16z
		 M253.84,705.28L200,651.44l-53.84,53.84l-16.06-16.06l69.9-69.9l69.9,69.9L253.84,705.28z M348.93,610.18l-22.14-22.14
		l22.14-22.14l22.14,22.14L348.93,610.18z M311.16,588.04L341.11,618l-16.06,16.06l-46.02-46.02l46.02-46.02l16.06,16.06
		L311.16,588.04z M263.4,588.04l53.84,53.84l-16.06,16.06l-69.9-69.9l69.9-69.9l16.06,16.06L263.4,588.04z M215.64,588.04
		l77.72,77.72l-15.64,15.64L200,603.68l-77.72,77.72l-15.64-15.64l77.72-77.72l-77.72-77.72l15.63-15.63L200,572.41l77.72-77.72
		l15.64,15.64L215.64,588.04z M200,556.77l-69.9-69.9l16.06-16.06L200,524.65l53.84-53.84l16.06,16.06L200,556.77z M200,509.01
		l-46.02-46.02l16.06-16.06L200,476.89l29.96-29.96l16.06,16.06L200,509.01z M200,461.25l-22.14-22.14L200,416.98l22.14,22.14
		L200,461.25z"/>
	
		<rect x="188.94" y="576.99" transform="matrix(0.7071 -0.7071 0.7071 0.7071 -357.2274 313.6466)" class="st0" width="22.11" height="22.11"/>
	<path class="st0" d="M186.71,392.03L186.71,392.03L0,205.32v15.64l22.14,22.14L0,265.24v15.64l29.96-29.96l16.06,16.06L0,313v15.64
		l53.84-53.84l16.06,16.06L0,360.76v15.64l77.72-77.72l15.64,15.63l-77.72,77.72h0l0,0l77.72,77.72l-15.64,15.64L0,407.67v15.64
		l69.9,69.9l-16.06,16.06L0,455.43v15.64l46.02,46.02l-16.06,16.06L0,503.19v15.64l22.14,22.14L0,563.1v15.64L186.71,392.03
		L186.71,392.03z M101.17,461.93l-69.9-69.9l0,0h0l69.9-69.9l16.06,16.06L63.4,392.03h0l0,0l53.84,53.84L101.17,461.93z
		 M125.05,438.05l-46.02-46.02l0,0h0l46.02-46.02l16.06,16.06l-29.96,29.96h0l0,0l29.96,29.96L125.05,438.05z M171.07,392.03
		l-22.14,22.14l-22.14-22.14l0,0h0l22.14-22.14L171.07,392.03L171.07,392.03L171.07,392.03z"/>
	<polygon class="st0" points="15.64,392.03 0,376.39 0,392.03 0,407.67 15.64,392.03 	"/>
	<polygon class="st0" points="1028.93,1176.09 1051.07,1153.95 1073.21,1176.09 1088.84,1176.09 1058.89,1146.13 1074.95,1130.07 
		1120.97,1176.09 1136.6,1176.09 1082.77,1122.25 1098.83,1106.19 1168.73,1176.09 1184.36,1176.09 1106.65,1098.37 
		1122.28,1082.74 1200,1160.45 1200,1144.82 1130.1,1074.92 1146.16,1058.86 1200,1112.69 1200,1097.06 1153.98,1051.04 
		1170.04,1034.98 1200,1064.93 1200,1049.3 1177.86,1027.16 1200,1005.02 1200,989.38 1013.29,1176.09 	"/>
	<polygon class="st0" points="1200,1176.09 1200,1160.45 1184.36,1176.09 	"/>
	<polygon class="st0" points="1184.36,784.06 1200,799.7 1200,784.06 1200,768.42 1184.36,784.06 	"/>
	<path class="st0" d="M1000,793.37L813.29,980.08L1000,1166.78l186.71-186.71L1000,793.37z M1171.07,980.08l-22.14,22.14
		l-22.14-22.14l22.14-22.14L1171.07,980.08z M1000,809l22.14,22.14L1000,853.28l-22.14-22.14L1000,809z M970.04,838.96l29.96,29.96
		l29.96-29.96l16.06,16.06L1000,901.04l-46.02-46.02L970.04,838.96z M946.16,862.84l53.84,53.84l53.84-53.84l16.06,16.06l-69.9,69.9
		l-69.9-69.9L946.16,862.84z M851.07,957.94l22.14,22.14l-22.14,22.14l-22.14-22.14L851.07,957.94z M888.84,980.08l-29.96-29.96
		l16.06-16.06l46.02,46.02l-46.02,46.02l-16.06-16.06L888.84,980.08z M936.6,980.08l-53.84-53.84l16.06-16.06l69.9,69.9l-69.9,69.9
		l-16.06-16.06L936.6,980.08z M1000,1151.14l-22.14-22.14l22.14-22.14l22.14,22.14L1000,1151.14z M1029.96,1121.19l-29.96-29.96
		l-29.96,29.96l-16.06-16.06l46.02-46.02l46.02,46.02L1029.96,1121.19z M1053.84,1097.31l-53.84-53.84l-53.84,53.84l-16.06-16.06
		l69.9-69.9l69.9,69.9L1053.84,1097.31z M1077.72,1073.43L1000,995.71l-77.72,77.72l-15.63-15.64l77.71-77.72l-77.71-77.72
		l15.63-15.63l77.72,77.72l77.72-77.72l15.64,15.63l-77.72,77.72l77.72,77.72L1077.72,1073.43z M1101.17,1049.97l-69.9-69.9
		l69.9-69.9l16.06,16.06l-53.84,53.84l53.84,53.84L1101.17,1049.97z M1125.05,1026.09l-46.02-46.02l46.02-46.02l16.06,16.06
		l-29.96,29.96l29.96,29.96L1125.05,1026.09z"/>
	
		<rect x="988.94" y="969.02" transform="matrix(0.7071 -0.7071 0.7071 0.7071 -400.1245 994.163)" class="st0" width="22.11" height="22.11"/>
	<polygon class="st0" points="815.64,784.06 800,768.42 784.36,784.06 784.36,784.06 800,799.7 815.64,784.06 	"/>
	<path class="st0" d="M613.29,1176.09h15.64l22.14-22.14l22.14,22.14h15.64l-29.96-29.96l16.06-16.06l46.02,46.02h15.64
		l-53.84-53.84l16.06-16.06l69.9,69.9h15.64l-77.72-77.72l15.64-15.63l77.72,77.71l77.72-77.71l15.64,15.63l-77.72,77.72h15.64
		l69.9-69.9l16.06,16.06l-53.84,53.84h15.64l46.02-46.02l16.06,16.06l-29.96,29.96h15.64l22.14-22.14l22.14,22.14h15.64L800,989.38
		L613.29,1176.09z M800,1144.82l-69.9-69.9l16.06-16.06l53.84,53.84l53.84-53.84l16.06,16.06L800,1144.82z M800,1097.06
		l-46.02-46.02l16.06-16.06l29.96,29.96l29.96-29.96l16.06,16.06L800,1097.06z M822.14,1027.16L800,1049.3l-22.14-22.14l22.14-22.14
		L822.14,1027.16z"/>
	<polygon class="st0" points="800,1176.09 815.64,1176.09 800,1160.45 784.36,1176.09 	"/>
	<path class="st0" d="M600,793.37L413.29,980.08L600,1166.78l186.71-186.71L600,793.37z M771.07,980.08l-22.14,22.14l-22.14-22.14
		l22.14-22.14L771.07,980.08z M600,809l22.14,22.14L600,853.28l-22.14-22.14L600,809z M570.04,838.96L600,868.92l29.96-29.96
		l16.06,16.06L600,901.04l-46.02-46.02L570.04,838.96z M546.16,862.84L600,916.68l53.84-53.84l16.06,16.06L600,948.8l-69.9-69.9
		L546.16,862.84z M451.07,957.94l22.14,22.14l-22.14,22.14l-22.14-22.14L451.07,957.94z M488.84,980.08l-29.96-29.96l16.06-16.06
		l46.02,46.02l-46.02,46.02l-16.06-16.06L488.84,980.08z M536.6,980.08l-53.84-53.84l16.06-16.06l69.9,69.9l-69.9,69.9l-16.06-16.06
		L536.6,980.08z M600,1151.14l-22.14-22.14l22.14-22.14l22.14,22.14L600,1151.14z M629.96,1121.19L600,1091.23l-29.96,29.96
		l-16.06-16.06l46.02-46.02l46.02,46.02L629.96,1121.19z M653.84,1097.31L600,1043.47l-53.84,53.84l-16.06-16.06l69.9-69.9
		l69.9,69.9L653.84,1097.31z M677.72,1073.43L600,995.71l-77.72,77.72l-15.64-15.64l77.72-77.72l-77.72-77.72l15.63-15.63
		L600,964.44l77.72-77.72l15.64,15.63l-77.72,77.72l77.72,77.72L677.72,1073.43z M701.17,1049.97l-69.9-69.9l69.9-69.9l16.06,16.06
		l-53.84,53.84l53.84,53.84L701.17,1049.97z M725.05,1026.09l-46.02-46.02l46.02-46.02l16.06,16.06l-29.96,29.96l29.96,29.96
		L725.05,1026.09z"/>
	
		<rect x="588.94" y="969.02" transform="matrix(0.7071 -0.7071 0.7071 0.7071 -517.2816 711.3208)" class="st0" width="22.11" height="22.11"/>
	<polygon class="st0" points="415.64,784.06 400,768.42 384.36,784.06 384.36,784.06 400,799.7 415.64,784.06 	"/>
	<path class="st0" d="M213.29,1176.09h15.64l22.14-22.14l22.14,22.14h15.64l-29.96-29.96l16.06-16.06l46.02,46.02h15.64
		l-53.84-53.84l16.06-16.06l69.9,69.9h15.64l-77.72-77.72l15.64-15.63l77.72,77.71l77.72-77.71l15.64,15.63l-77.72,77.72h15.64
		l69.9-69.9l16.06,16.06l-53.84,53.84h15.64l46.02-46.02l16.06,16.06l-29.96,29.96h15.64l22.14-22.14l22.14,22.14h15.64L400,989.38
		L213.29,1176.09z M400,1144.82l-69.9-69.9l16.06-16.06l53.84,53.84l53.84-53.84l16.06,16.06L400,1144.82z M400,1097.06
		l-46.02-46.02l16.06-16.06l29.96,29.96l29.96-29.96l16.06,16.06L400,1097.06z M422.14,1027.16L400,1049.3l-22.14-22.14l22.14-22.14
		L422.14,1027.16z"/>
	<polygon class="st0" points="400,1176.09 415.64,1176.09 400,1160.45 384.36,1176.09 	"/>
	<polygon class="st0" points="0,1005.02 22.14,1027.16 0,1049.3 0,1064.93 29.96,1034.98 46.02,1051.04 0,1097.06 0,1112.69 
		53.84,1058.86 69.9,1074.92 0,1144.82 0,1160.45 77.72,1082.74 93.35,1098.37 15.64,1176.09 31.27,1176.09 101.17,1106.19 
		117.23,1122.25 63.4,1176.09 79.03,1176.09 125.05,1130.07 141.11,1146.13 111.16,1176.09 126.79,1176.09 148.93,1153.95 
		171.07,1176.09 186.71,1176.09 0,989.38 	"/>
	<polygon class="st0" points="15.64,1176.09 0,1160.45 0,1176.09 	"/>
	<path class="st0" d="M200,793.37L13.29,980.08L200,1166.78l186.71-186.71L200,793.37z M371.07,980.08l-22.14,22.14l-22.14-22.14
		l22.14-22.14L371.07,980.08z M200,809l22.14,22.14L200,853.28l-22.14-22.14L200,809z M170.04,838.96L200,868.92l29.96-29.96
		l16.06,16.06L200,901.04l-46.02-46.02L170.04,838.96z M146.16,862.84L200,916.68l53.84-53.84l16.06,16.06L200,948.8l-69.9-69.9
		L146.16,862.84z M51.07,957.94l22.14,22.14l-22.14,22.14l-22.14-22.14L51.07,957.94z M88.84,980.08l-29.96-29.96l16.06-16.06
		l46.02,46.02l-46.02,46.02l-16.06-16.06L88.84,980.08z M136.6,980.08l-53.84-53.84l16.06-16.06l69.9,69.9l-69.9,69.9l-16.06-16.06
		L136.6,980.08z M200,1151.14l-22.14-22.14l22.14-22.14l22.14,22.14L200,1151.14z M229.96,1121.19L200,1091.23l-29.96,29.96
		l-16.06-16.06l46.02-46.02l46.02,46.02L229.96,1121.19z M253.84,1097.31L200,1043.47l-53.84,53.84l-16.06-16.06l69.9-69.9
		l69.9,69.9L253.84,1097.31z M277.72,1073.43L200,995.71l-77.72,77.72l-15.64-15.64l77.72-77.72l-77.72-77.72l15.63-15.63
		L200,964.44l77.72-77.72l15.64,15.63l-77.72,77.72l77.72,77.72L277.72,1073.43z M301.17,1049.97l-69.9-69.9l69.9-69.9l16.06,16.06
		l-53.84,53.84l53.84,53.84L301.17,1049.97z M325.05,1026.09l-46.02-46.02l46.02-46.02l16.06,16.06l-29.96,29.96l29.96,29.96
		L325.05,1026.09z"/>
	
		<rect x="188.94" y="969.02" transform="matrix(0.7071 -0.7071 0.7071 0.7071 -634.4478 428.4919)" class="st0" width="22.11" height="22.11"/>
	<path class="st0" d="M186.71,784.06L186.71,784.06L0,597.35v15.64l22.14,22.14L0,657.27v15.64l29.96-29.96l16.06,16.06L0,705.03
		v15.64l53.84-53.84l16.06,16.06L0,752.79v15.64l77.72-77.72l15.64,15.63l-77.72,77.72h0l0,0l77.72,77.72l-15.64,15.63L0,799.7
		v15.64l69.9,69.9l-16.06,16.06L0,847.46v15.64l46.02,46.02l-16.06,16.06L0,895.22v15.64l22.14,22.14L0,955.13v15.64L186.71,784.06
		L186.71,784.06z M101.17,853.96l-69.9-69.9l0,0h0l69.9-69.9l16.06,16.06L63.4,784.06h0l0,0l53.84,53.84L101.17,853.96z
		 M125.05,830.08l-46.02-46.02l0,0h0l46.02-46.02l16.06,16.06l-29.96,29.96h0l0,0l29.96,29.96L125.05,830.08z M171.07,784.06
		l-22.14,22.14l-22.14-22.14l0,0h0l22.14-22.14L171.07,784.06L171.07,784.06L171.07,784.06z"/>
	<polygon class="st0" points="15.64,784.06 0,768.42 0,784.06 0,799.7 15.64,784.06 	"/>
	<path class="st0" d="M1013.29,392.03L1013.29,392.03L1200,578.74V563.1l-22.14-22.14l22.14-22.14v-15.64l-29.96,29.96l-16.06-16.06
		l46.02-46.02v-15.64l-53.84,53.84l-16.06-16.06l69.9-69.9v-15.64l-77.72,77.72l-15.64-15.64l77.72-77.72l0,0h0l-77.72-77.72
		l15.64-15.63l77.72,77.72v-15.64l-69.9-69.9l16.06-16.06l53.84,53.84V313l-46.02-46.02l16.06-16.06l29.96,29.96v-15.64
		l-22.14-22.14l22.14-22.14v-15.64L1013.29,392.03L1013.29,392.03z M1098.83,322.13l69.9,69.9h0l0,0l-69.9,69.9l-16.06-16.06
		l53.84-53.84l0,0h0l-53.84-53.84L1098.83,322.13z M1074.95,346.01l46.02,46.02h0l0,0l-46.02,46.02l-16.06-16.06l29.96-29.96v0
		l-29.96-29.96L1074.95,346.01z M1051.07,369.89l22.14,22.14h0l0,0l-22.14,22.14l-22.14-22.14l0,0h0L1051.07,369.89z"/>
	<polygon class="st0" points="1106.65,77.72 1184.36,0 1184.36,0 1168.73,0 1168.73,0 1098.83,69.9 1082.77,53.84 1136.6,0 
		1136.6,0 1120.97,0 1120.97,0 1074.95,46.02 1058.89,29.96 1088.84,0 1088.84,0 1073.21,0 1073.21,0 1051.07,22.14 1028.93,0 
		1028.93,0 1013.29,0 1013.29,0 1200,186.71 1200,171.07 1177.86,148.93 1200,126.79 1200,111.16 1170.04,141.11 1153.98,125.05 
		1200,79.03 1200,63.4 1146.16,117.23 1130.1,101.17 1200,31.27 1200,15.64 1122.28,93.35 	"/>
	<polygon class="st0" points="1184.36,0 1184.36,0 1200,15.64 1200,0 	"/>
	<path class="st0" d="M1000,9.31L813.29,196.02L1000,382.72l186.71-186.71L1000,9.31z M1171.07,196.02l-22.14,22.14l-22.14-22.14
		l22.14-22.14L1171.07,196.02z M1000,24.95l22.14,22.14L1000,69.22l-22.14-22.14L1000,24.95z M970.04,54.9L1000,84.86l29.96-29.96
		l16.06,16.06L1000,116.98l-46.02-46.02L970.04,54.9z M946.16,78.78l53.84,53.84l53.84-53.84l16.06,16.06l-69.9,69.9l-69.9-69.9
		L946.16,78.78z M851.07,173.88l22.14,22.14l-22.14,22.14l-22.14-22.14L851.07,173.88z M888.84,196.02l-29.96-29.96L874.95,150
		l46.02,46.02l-46.02,46.02l-16.06-16.06L888.84,196.02z M936.6,196.02l-53.84-53.84l16.06-16.06l69.9,69.9l-69.9,69.9l-16.06-16.06
		L936.6,196.02z M1000,367.08l-22.14-22.14l22.14-22.14l22.14,22.14L1000,367.08z M1029.96,337.13L1000,307.17l-29.96,29.96
		l-16.06-16.06l46.02-46.02l46.02,46.02L1029.96,337.13z M1053.84,313.25L1000,259.41l-53.84,53.84l-16.06-16.06l69.9-69.9
		l69.9,69.9L1053.84,313.25z M1077.72,289.37L1000,211.65l-77.72,77.72l-15.63-15.64l77.71-77.72l-77.71-77.72l15.63-15.63
		l77.72,77.72l77.72-77.72l15.64,15.64l-77.72,77.72l77.72,77.72L1077.72,289.37z M1101.17,265.91l-69.9-69.9l69.9-69.9l16.06,16.06
		l-53.84,53.84l53.84,53.84L1101.17,265.91z M1125.05,242.03l-46.02-46.02l46.02-46.02l16.06,16.06l-29.96,29.96l29.96,29.96
		L1125.05,242.03z"/>
	
		<rect x="988.94" y="184.96" transform="matrix(0.7071 -0.7071 0.7071 0.7071 154.2805 764.5048)" class="st0" width="22.11" height="22.11"/>
	<path class="st0" d="M986.71,0L986.71,0l-15.64,0l0,0l-22.14,22.14L926.79,0l0,0h-15.64v0l29.96,29.96l-16.06,16.06L879.03,0l0,0
		H863.4l0,0l53.84,53.84L901.17,69.9L831.27,0l0,0h-15.64l0,0l77.72,77.72l-15.64,15.64L800,15.64l-77.72,77.72l-15.64-15.64
		L784.36,0l0,0h-15.64l0,0l-69.9,69.9l-16.06-16.06L736.6,0l0,0h-15.64l0,0l-46.02,46.02l-16.06-16.06L688.84,0l0,0h-15.64l0,0
		l-22.14,22.14L628.93,0l0,0h-15.64l0,0L800,186.71L986.71,0z M800,31.27l69.9,69.9l-16.06,16.06L800,63.4l-53.84,53.84
		l-16.06-16.06L800,31.27z M800,79.03l46.02,46.02l-16.06,16.06L800,111.16l-29.96,29.96l-16.06-16.06L800,79.03z M777.86,148.93
		L800,126.79l22.14,22.14L800,171.07L777.86,148.93z"/>
	<polygon class="st0" points="815.64,0 815.64,0 800,0 784.36,0 784.36,0 800,15.64 	"/>
	<path class="st0" d="M600,382.72l186.71-186.71L600,9.31L413.29,196.02L600,382.72z M428.93,196.02l22.14-22.14l22.14,22.14
		l-22.14,22.14L428.93,196.02z M600,367.08l-22.14-22.14L600,322.81l22.14,22.14L600,367.08z M629.96,337.13L600,307.17
		l-29.96,29.96l-16.06-16.06L600,275.05l46.02,46.02L629.96,337.13z M653.84,313.25L600,259.41l-53.84,53.84l-16.06-16.06l69.9-69.9
		l69.9,69.9L653.84,313.25z M748.93,218.15l-22.14-22.14l22.14-22.14l22.14,22.14L748.93,218.15z M711.16,196.02l29.96,29.96
		l-16.06,16.06l-46.02-46.02L725.05,150l16.06,16.06L711.16,196.02z M663.4,196.02l53.84,53.84l-16.06,16.06l-69.9-69.9l69.9-69.9
		l16.06,16.06L663.4,196.02z M600,24.95l22.14,22.14L600,69.22l-22.14-22.14L600,24.95z M570.04,54.9L600,84.86l29.96-29.96
		l16.06,16.06L600,116.98l-46.02-46.02L570.04,54.9z M546.16,78.78L600,132.62l53.84-53.84l16.06,16.06l-69.9,69.9l-69.9-69.9
		L546.16,78.78z M522.28,102.66L600,180.38l77.72-77.72l15.64,15.64l-77.72,77.72l77.72,77.72l-15.64,15.64L600,211.65l-77.72,77.72
		l-15.64-15.64l77.72-77.72l-77.72-77.72L522.28,102.66z M498.83,126.12l69.9,69.9l-69.9,69.9l-16.06-16.06l53.84-53.84
		l-53.84-53.84L498.83,126.12z M474.95,150l46.02,46.02l-46.02,46.02l-16.06-16.06l29.96-29.96l-29.96-29.96L474.95,150z"/>
	
		<rect x="588.94" y="184.96" transform="matrix(0.7071 -0.7071 0.7071 0.7071 37.1279 481.6668)" class="st0" width="22.11" height="22.11"/>
	<path class="st0" d="M586.71,0L586.71,0l-15.64,0l0,0l-22.14,22.14L526.79,0l0,0h-15.64l0,0l29.96,29.96l-16.06,16.06L479.03,0l0,0
		H463.4l0,0l53.84,53.84L501.17,69.9L431.27,0l0,0h-15.64l0,0l77.72,77.72l-15.64,15.64L400,15.64l-77.72,77.72l-15.64-15.64
		L384.36,0l0,0h-15.64l0,0l-69.9,69.9l-16.06-16.06L336.6,0l0,0h-15.64l0,0l-46.02,46.02l-16.06-16.06L288.84,0l0,0h-15.64l0,0
		l-22.14,22.14L228.93,0l0,0h-15.64l0,0L400,186.71L586.71,0z M400,31.27l69.9,69.9l-16.06,16.06L400,63.4l-53.84,53.84
		l-16.06-16.06L400,31.27z M400,79.03l46.02,46.02l-16.06,16.06L400,111.16l-29.96,29.96l-16.06-16.06L400,79.03z M377.86,148.93
		L400,126.79l22.14,22.14L400,171.07L377.86,148.93z"/>
	<polygon class="st0" points="415.64,0 415.64,0 400,0 384.36,0 384.36,0 400,15.64 	"/>
	<path class="st0" d="M200,382.72l186.71-186.71L200,9.31L13.29,196.02L200,382.72z M28.93,196.02l22.14-22.14l22.14,22.14
		l-22.14,22.14L28.93,196.02z M200,367.08l-22.14-22.14L200,322.81l22.14,22.14L200,367.08z M229.96,337.13L200,307.17l-29.96,29.96
		l-16.06-16.06L200,275.05l46.02,46.02L229.96,337.13z M253.84,313.25L200,259.41l-53.84,53.84l-16.06-16.06l69.9-69.9l69.9,69.9
		L253.84,313.25z M348.93,218.15l-22.14-22.14l22.14-22.14l22.14,22.14L348.93,218.15z M311.16,196.02l29.96,29.96l-16.06,16.06
		l-46.02-46.02L325.05,150l16.06,16.06L311.16,196.02z M263.4,196.02l53.84,53.84l-16.06,16.06l-69.9-69.9l69.9-69.9l16.06,16.06
		L263.4,196.02z M200,24.95l22.14,22.14L200,69.22l-22.14-22.14L200,24.95z M170.04,54.9L200,84.86l29.96-29.96l16.06,16.06
		L200,116.98l-46.02-46.02L170.04,54.9z M146.16,78.78L200,132.62l53.84-53.84l16.06,16.06l-69.9,69.9l-69.9-69.9L146.16,78.78z
		 M122.28,102.66L200,180.38l77.72-77.72l15.64,15.64l-77.72,77.72l77.72,77.72l-15.64,15.64L200,211.65l-77.72,77.72l-15.64-15.64
		l77.72-77.72l-77.72-77.72L122.28,102.66z M98.83,126.12l69.9,69.9l-69.9,69.9l-16.06-16.06l53.84-53.84l-53.84-53.84L98.83,126.12
		z M74.95,150l46.02,46.02l-46.02,46.02l-16.06-16.06l29.96-29.96l-29.96-29.96L74.95,150z"/>
	
		<rect x="188.94" y="184.96" transform="matrix(0.7071 -0.7071 0.7071 0.7071 -80.025 198.8329)" class="st0" width="22.11" height="22.11"/>
	<polygon class="st0" points="186.71,0 171.07,0 171.07,0 148.93,22.14 126.79,0 126.79,0 111.16,0 111.16,0 141.11,29.96 
		125.05,46.02 79.03,0 79.03,0 63.4,0 63.4,0 117.23,53.84 101.17,69.9 31.27,0 31.27,0 15.64,0 15.64,0 93.35,77.72 77.72,93.35 
		0,15.64 0,31.27 69.9,101.17 53.84,117.23 0,63.4 0,79.03 46.02,125.05 29.96,141.11 0,111.16 0,126.79 22.14,148.93 0,171.07 
		0,186.71 186.71,0 	"/>
	<polygon class="st0" points="15.64,0 0,0 0,15.64 15.64,0 	"/>
</g>
</svg>
